<?xml version="1.0" encoding="utf-8"?>
<!-- Generator: Adobe Illustrator 23.0.2, SVG Export Plug-In . SVG Version: 6.00 Build 0)  -->
<svg version="1.1" id="Layer_1" xmlns="http://www.w3.org/2000/svg" xmlns:xlink="http://www.w3.org/1999/xlink" x="0px" y="0px"
	 viewBox="0 0 600 800" style="enable-background:new 0 0 600 800;" xml:space="preserve">
<style type="text/css">
	.st0{opacity:0.4;enable-background:new    ;}
	.st1{fill:#00FF00;}
</style>
<g>
	<path class="st0" d="M0,800C0,533.3,0,266.7,0,0c200,0,400,0,600,0c0,266.7,0,533.3,0,800C400,800,200,800,0,800z M80.3,358.3
		c-10.6,2-18,7.5-20.6,17.7c-1.8,7.4-3.8,15-3.7,22.5c0.3,13,1.2,26.2,3.7,38.9c7.5,39,22.4,74.6,51.6,103.1c4.6,4.5,9,10,11.2,16
		c8.2,22.6,19,43.6,33.7,62.7c13.4,17.3,27.7,33.8,45.1,47.1c43.9,33.3,92.2,44.5,145.4,26.9c39.4-13.1,69.2-39.1,92.9-72.6
		c11.3-16,22.8-31.8,30.1-50.2c3.8-9.3,8.5-18.4,14-26.9c4.4-6.7,11.5-11.7,16.1-18.3c28.9-41.3,44.6-86.6,40.4-137.5
		c-1.1-12.5-5.2-23.9-18.8-28.9c-1.9-0.7-4-4.2-4-6.5c-0.7-16.9-0.7-34-1.4-51c-0.8-19.6-1.8-39.3-3.7-58.8
		c-2.7-28.5-10.6-55.6-24.7-80.7c-16.1-28.8-38.9-50.6-67.9-66.3C388.9,78.8,355.6,71,321,70.2c-29.1-0.7-58.2-2-87.3,4.5
		c-33.1,7.5-63.7,20.3-89.5,42.7c-28.8,24.8-45.4,57.3-55.8,93.4c-6.4,22.5-7.2,45.8-8,68.9C79.4,305.6,80.3,331.5,80.3,358.3z"/>
	<path class="st1" d="M80.3,358.3c0-26.7-0.8-52.8,0.3-78.6c1-23.1,1.6-46.4,8-68.9c10.4-36.1,27-68.6,55.8-93.4
		c25.8-22.2,56.3-35.2,89.5-42.7c28.9-6.5,58.1-5.2,87.3-4.5c34.6,0.8,67.8,8.6,98.7,25.2c29.1,15.7,51.8,37.5,67.9,66.3
		c14,25.1,22,52.2,24.7,80.7c1.9,19.5,2.7,39.1,3.7,58.8c0.7,16.9,0.7,34,1.4,51c0.1,2.3,2,5.7,4,6.5c13.6,5,17.7,16.5,18.8,28.9
		c4.2,50.9-11.6,96.3-40.4,137.5c-4.6,6.7-11.6,11.6-16.1,18.3c-5.6,8.3-10.2,17.5-14,26.9c-7.4,18.4-18.8,34.2-30.1,50.2
		c-23.7,33.4-53.5,59.5-92.9,72.6c-53.2,17.7-101.5,6.4-145.4-26.9c-17.5-13.2-31.8-29.7-45.1-47.1c-14.7-19.1-25.6-40.1-33.7-62.7
		c-2.2-5.9-6.5-11.5-11.2-16c-29.1-28.5-43.9-64-51.6-103.1c-2.5-12.7-3.4-25.9-3.7-38.9c-0.1-7.5,1.8-15.1,3.7-22.5
		C62.3,365.8,69.6,360.3,80.3,358.3z M289.2,74.2c-20.9-1.6-44.7,1.8-68.2,8.2c-27.8,7.6-53.3,20.2-75.2,39.3
		c-23.7,20.9-38.5,47.6-49,76.9c-11,30.6-11.9,62.5-12.4,94.4c-0.4,20.2-0.1,40.5,0,60.7c0,4.9-1,8.3-6.4,9.5
		c-10,2-13.5,9.5-15.5,18.4c-4,16.4-3,32.7,0.1,49.1c7.8,40.6,22.1,78.2,52.5,107.9c4.6,4.5,9.1,9.8,11.3,15.7
		c7.2,19,15.1,37.4,27.3,54.1c14.9,20.6,30.8,40,51.1,55.2c41.2,31,86.6,42.3,136.7,26.7c57.3-17.7,91.7-61,119.3-111
		c6.5-11.7,11-24.7,18.3-36c9.3-14.5,22.1-27,30.6-41.9c19.4-34.4,30.4-71.5,26.9-111.6c-1.1-12.1-4.4-23.1-17.5-28.2
		c-2.5-1-5.2-5.2-5.3-8c-0.8-19.8-1.2-39.4-1.4-59.2c-0.1-25.1-2.6-50.1-7.5-74.6c-6.3-31.4-19.1-60-40.1-84.2
		c-25-28.8-57.6-45.4-94.1-54.7C344.9,74.7,319,73.7,289.2,74.2z"/>
</g>
</svg>
